# xmcd
#
# Track frame offsets: 
#        150
#        16699
#        37511
#        56833
#        77749
#        97738
#        120055
#        140231
#        159928
#        177703
#        197089
#        211890
#        232978
#        258379
#        278147
#
# Disc length: 3888 seconds
#
# Revision: 0
# Processed by: cddbd v1.5.2PL0 Copyright (c) Steve Scherf et al.
# Submitted via: ExactAudioCopyFreeDBPlugin 1.0
#
DISCID=ba0f2e0f
DTITLE=王菲 - 菲精品
DYEAR=2011
DGENRE=Pop
TTITLE0=传奇
TTITLE1=暧昧
TTITLE2=容易受伤的女人
TTITLE3=季候风
TTITLE4=催眠
TTITLE5=我也不想这样
TTITLE6=如风
TTITLE7=天空
TTITLE8=蝴蝶
TTITLE9=偿还
TTITLE10=黄昏里
TTITLE11=天与地
TTITLE12=看着我
TTITLE13=你在我心中
TTITLE14=假如我是真的
EXTD=
EXTT0=
EXTT1=
EXTT2=
EXTT3=
EXTT4=
EXTT5=
EXTT6=
EXTT7=
EXTT8=
EXTT9=
EXTT10=
EXTT11=
EXTT12=
EXTT13=
EXTT14=
PLAYORDER=
